<?xml version="1.0" encoding="UTF-8"?>
<svg id="Capa_2" xmlns="http://www.w3.org/2000/svg" viewBox="0 0 157.5 43.78">
  <defs>
    <style>
      .cls-1 {
        fill: #c44029;
      }

      .cls-2 {
        fill: #18191c;
      }
    </style>
  </defs>
  <g id="Capa_1-2" data-name="Capa_1">
    <g>
      <g>
        <path class="cls-2" d="M6.91,24.02c.72,3.15,3.01,4.53,6.68,4.53s5.23-1.43,5.23-3.73c0-2.55-1.53-3.66-6.95-4.91C3.23,17.91,1.1,14.8,1.1,10.57,1.1,5.1,5.23,1.39,12.74,1.39c8.42,0,11.78,4.48,12.23,9.07h-6.91c-.33-1.93-1.41-4.03-5.5-4.03-2.78,0-4.46,1.14-4.46,3.36s1.35,3.07,6.47,4.24c9.23,2.15,11.25,5.54,11.25,9.97,0,5.73-4.38,9.66-12.77,9.66S.76,29.74,0,24.02h6.91Z"/>
        <path class="cls-2" d="M37.07,19.6c1.75-2.35,4.91-6.01,8.2-9.94h7.56l-8.3,8.89,9.08,14.66h-7.47l-6.03-10.48-3.05,2.92v7.56h-6.59V0h6.59v19.6Z"/>
      </g>
      <g>
        <path class="cls-1" d="M103.48,2.38h2.35v30.51h-2.35v-15.17h-17.06v15.17h-2.35V2.38h2.35v12.99h17.06V2.38Z"/>
        <path class="cls-1" d="M120.65,33.45c-2,0-3.83-.52-5.48-1.55-1.65-1.03-2.96-2.42-3.95-4.15-.98-1.74-1.47-3.66-1.47-5.76,0-1.6.28-3.09.85-4.48.57-1.39,1.35-2.61,2.34-3.66,1-1.05,2.15-1.88,3.48-2.47,1.32-.6,2.73-.89,4.23-.89,2,0,3.83.52,5.48,1.55,1.65,1.03,2.96,2.42,3.94,4.16.98,1.74,1.47,3.68,1.47,5.8,0,1.58-.28,3.07-.85,4.45-.57,1.38-1.35,2.6-2.34,3.65-1,1.05-2.15,1.88-3.46,2.47s-2.73.89-4.24.89ZM120.65,31.1c1.61,0,3.06-.42,4.35-1.26,1.29-.84,2.31-1.95,3.06-3.33.75-1.38,1.13-2.88,1.13-4.51s-.38-3.16-1.13-4.55c-.76-1.39-1.78-2.51-3.07-3.34-1.29-.83-2.74-1.25-4.34-1.25s-3.07.42-4.36,1.26c-1.29.84-2.31,1.96-3.06,3.35-.75,1.39-1.12,2.9-1.12,4.54s.39,3.24,1.17,4.61,1.81,2.47,3.11,3.28c1.29.81,2.72,1.22,4.27,1.22Z"/>
        <path class="cls-1" d="M137.82,43.78h-2.35V11.1h2.35v4.49c.77-1.51,1.85-2.73,3.24-3.66,1.39-.93,3.05-1.4,4.98-1.4,1.58,0,3.07.3,4.45.89,1.38.6,2.6,1.42,3.65,2.47,1.05,1.05,1.88,2.27,2.47,3.65.6,1.38.89,2.86.89,4.45s-.3,3.07-.89,4.47-1.42,2.62-2.47,3.67c-1.05,1.05-2.27,1.88-3.65,2.47-1.38.6-2.86.89-4.45.89-1.93,0-3.59-.46-4.98-1.39-1.39-.93-2.47-2.15-3.24-3.66v15.34ZM146.01,12.84c-1.66,0-3.08.41-4.28,1.23-1.2.82-2.12,1.92-2.77,3.3-.65,1.38-.97,2.92-.97,4.62s.32,3.2.96,4.6c.64,1.39,1.56,2.51,2.76,3.34,1.2.84,2.63,1.25,4.3,1.25s3.15-.41,4.52-1.22,2.48-1.91,3.32-3.3,1.26-2.95,1.26-4.67-.41-3.2-1.23-4.59c-.82-1.39-1.92-2.5-3.29-3.32s-2.9-1.24-4.59-1.24Z"/>
      </g>
      <path class="cls-2" d="M67.4,33.21h-5.85c-.37,0-.71-.25-.81-.6l-6.91-23h6.48l7.09,23.61Z"/>
      <path class="cls-1" d="M81.68,9.61h-6.48l-9.95,33.11h5.85c.37,0,.71-.25.81-.6l9.76-32.5Z"/>
    </g>
  </g>
</svg>